<svg width="446" height="250" viewBox="0 0 446 250" fill="none" xmlns="http://www.w3.org/2000/svg">
<circle cx="112" cy="123" r="102" fill="#ECF0F9"/>
<circle cx="387.5" cy="61.5" r="41.5" fill="#ECF0F9"/>
<path d="M442.826 250H3.17438C2.33248 250 1.52507 249.586 0.929754 248.851C0.334443 248.115 0 247.117 0 246.076C0 245.035 0.334443 244.037 0.929754 243.302C1.52507 242.566 2.33248 242.152 3.17438 242.152H442.826C443.668 242.152 444.475 242.566 445.07 243.302C445.666 244.037 446 245.035 446 246.076C446 247.117 445.666 248.115 445.07 248.851C444.475 249.586 443.668 250 442.826 250V250Z" fill="#CECECE"/>
<path d="M62.6267 0H398.056C399.508 0 400.9 0.576091 401.927 1.60155C402.953 2.627 403.53 4.01783 403.53 5.46804V230.154C403.53 231.605 402.953 232.995 401.927 234.021C400.9 235.046 399.508 235.622 398.056 235.622H62.6267C61.1748 235.622 59.7824 235.046 58.7557 234.021C57.7291 232.995 57.1523 231.605 57.1523 230.154V5.46802C57.1523 4.74995 57.2939 4.03891 57.5691 3.3755C57.8442 2.71209 58.2474 2.10929 58.7557 1.60154C59.2641 1.09379 59.8676 0.691019 60.5318 0.416225C61.1959 0.141432 61.9078 0 62.6267 0V0Z" fill="#888888"/>
<path d="M397.06 3.97705H62.1289V225.184H397.06V3.97705Z" fill="white"/>
<path d="M397.06 3.88281H62.1289V15.1239H397.06V3.88281Z" fill="#DEDEDE"/>
<path d="M70.5617 11.9651C72.0058 11.6202 72.8965 10.1712 72.5512 8.72879C72.2058 7.28635 70.7552 6.39666 69.3111 6.74162C67.867 7.08657 66.9763 8.53554 67.3216 9.97797C67.667 11.4204 69.1176 12.3101 70.5617 11.9651Z" fill="#E17660"/>
<path d="M80.2214 11.9651C81.6655 11.6202 82.5562 10.1712 82.2108 8.72878C81.8655 7.28635 80.4148 6.39666 78.9707 6.74162C77.5266 7.08657 76.6359 8.53554 76.9813 9.97797C77.3266 11.4204 78.7773 12.3101 80.2214 11.9651Z" fill="#EEBE80"/>
<path d="M90.1784 11.9651C91.6225 11.6202 92.5132 10.1712 92.1679 8.72878C91.8225 7.28635 90.3719 6.39666 88.9278 6.74162C87.4837 7.08657 86.593 8.53554 86.9383 9.97797C87.2837 11.4204 88.7343 12.3101 90.1784 11.9651Z" fill="#7CA594"/>
<path d="M411.452 224.686H48.8152C47.1987 224.686 45.6485 225.327 44.5054 226.469C43.3624 227.61 42.7202 229.159 42.7202 230.774V230.774C42.7202 233.905 43.9656 236.908 46.1825 239.123C48.3994 241.337 51.4062 242.581 54.5413 242.581H406.557C409.582 242.581 412.483 241.381 414.622 239.244C416.761 237.108 417.963 234.21 417.963 231.189V231.189C417.963 229.464 417.277 227.81 416.056 226.59C414.835 225.371 413.179 224.686 411.452 224.686Z" fill="#888888"/>
<path d="M201 29H77V50H201V29Z" fill="#ECF0F9"/>
<path d="M94.5762 41.4736C94.5762 42.0238 94.4408 42.4977 94.1699 42.8955C93.9033 43.2933 93.5182 43.598 93.0146 43.8096C92.5153 44.0212 91.9186 44.127 91.2246 44.127C90.8861 44.127 90.5623 44.1079 90.2534 44.0698C89.9445 44.0317 89.6525 43.9767 89.3774 43.9048C89.1066 43.8286 88.859 43.7376 88.6348 43.6318V42.1973C89.0114 42.3623 89.4325 42.5125 89.8979 42.6479C90.3634 42.7791 90.8374 42.8447 91.3198 42.8447C91.7134 42.8447 92.0392 42.7939 92.2974 42.6924C92.5597 42.5866 92.7544 42.4385 92.8813 42.248C93.0083 42.0534 93.0718 41.827 93.0718 41.5688C93.0718 41.2938 92.9977 41.061 92.8496 40.8706C92.7015 40.6802 92.4772 40.5067 92.1768 40.3501C91.8805 40.1893 91.5081 40.0179 91.0596 39.8359C90.7549 39.7132 90.4629 39.5736 90.1836 39.417C89.9085 39.2604 89.6631 39.0763 89.4473 38.8647C89.2314 38.6532 89.0601 38.4035 88.9331 38.1157C88.8104 37.8237 88.749 37.481 88.749 37.0874C88.749 36.5627 88.8739 36.1141 89.1235 35.7417C89.3774 35.3693 89.7329 35.0837 90.1899 34.8848C90.6512 34.6859 91.1886 34.5864 91.8022 34.5864C92.2889 34.5864 92.7459 34.6372 93.1733 34.7388C93.605 34.8403 94.0282 34.9842 94.4429 35.1704L93.9604 36.3955C93.5796 36.2389 93.2093 36.1141 92.8496 36.021C92.4941 35.9279 92.1302 35.8813 91.7578 35.8813C91.4362 35.8813 91.1632 35.93 90.939 36.0273C90.7147 36.1247 90.5433 36.2622 90.4248 36.4399C90.3105 36.6134 90.2534 36.8208 90.2534 37.062C90.2534 37.3328 90.319 37.5614 90.4502 37.7476C90.5856 37.9295 90.793 38.0967 91.0723 38.249C91.3558 38.4014 91.7197 38.5706 92.1641 38.7568C92.6761 38.9684 93.1099 39.1906 93.4653 39.4233C93.825 39.6561 94.1001 39.9354 94.2905 40.2612C94.481 40.5828 94.5762 40.987 94.5762 41.4736Z" fill="#4079DA"/>
<path d="M102.012 44H96.7562V34.7197H102.012V36.002H98.2796V38.522H101.777V39.7979H98.2796V42.7114H102.012V44Z" fill="#4079DA"/>
<path d="M104.408 44V34.7197H105.931V42.7051H109.873V44H104.408Z" fill="#4079DA"/>
<path d="M113.38 44H111.869V34.7197H117.112V36.002H113.38V38.8965H116.871V40.1724H113.38V44Z" fill="#4079DA"/>
<path d="M122.958 44V34.7197H124.481V42.7051H128.423V44H122.958Z" fill="#4079DA"/>
<path d="M135.675 44H130.419V34.7197H135.675V36.002H131.943V38.522H135.44V39.7979H131.943V42.7114H135.675V44Z" fill="#4079DA"/>
<path d="M143.822 44L142.914 41.4229H139.366L138.458 44H136.852L140.305 34.6816H141.994L145.44 44H143.822ZM142.521 40.1152L141.638 37.5762C141.604 37.4661 141.556 37.3117 141.492 37.1128C141.429 36.9097 141.365 36.7044 141.302 36.4971C141.238 36.2855 141.185 36.1077 141.143 35.9639C141.101 36.1374 141.048 36.332 140.984 36.5479C140.925 36.7594 140.866 36.9583 140.807 37.1445C140.752 37.3307 140.709 37.4746 140.68 37.5762L139.791 40.1152H142.521Z" fill="#4079DA"/>
<path d="M149.664 34.7197C150.464 34.7197 151.124 34.8171 151.645 35.0117C152.17 35.2064 152.559 35.5026 152.813 35.9004C153.071 36.2982 153.2 36.8039 153.2 37.4175C153.2 37.8745 153.115 38.2638 152.946 38.5854C152.777 38.9071 152.555 39.1737 152.28 39.3853C152.005 39.5968 151.71 39.7661 151.397 39.8931L154.032 44H152.311L150.071 40.2803H148.579V44H147.056V34.7197H149.664ZM149.563 35.9893H148.579V39.0234H149.633C150.339 39.0234 150.851 38.8923 151.169 38.6299C151.49 38.3675 151.651 37.9803 151.651 37.4683C151.651 36.9308 151.48 36.55 151.137 36.3257C150.799 36.1014 150.274 35.9893 149.563 35.9893Z" fill="#4079DA"/>
<path d="M163.492 44H161.62L157.075 36.5923H157.018C157.035 36.842 157.05 37.1064 157.062 37.3857C157.079 37.665 157.092 37.9528 157.1 38.249C157.113 38.5452 157.124 38.8457 157.132 39.1504V44H155.748V34.7197H157.608L162.147 42.0767H162.191C162.183 41.8608 162.172 41.6133 162.159 41.334C162.147 41.0547 162.134 40.7669 162.121 40.4707C162.113 40.1702 162.107 39.8804 162.102 39.6011V34.7197H163.492V44Z" fill="#4079DA"/>
<path d="M166.32 44V34.7197H167.843V44H166.32Z" fill="#4079DA"/>
<path d="M178.428 44H176.555L172.01 36.5923H171.953C171.97 36.842 171.985 37.1064 171.998 37.3857C172.014 37.665 172.027 37.9528 172.036 38.249C172.048 38.5452 172.059 38.8457 172.067 39.1504V44H170.684V34.7197H172.543L177.082 42.0767H177.126C177.118 41.8608 177.107 41.6133 177.095 41.334C177.082 41.0547 177.069 40.7669 177.057 40.4707C177.048 40.1702 177.042 39.8804 177.038 39.6011V34.7197H178.428V44Z" fill="#4079DA"/>
<path d="M185 38.96H188.466V43.6191C187.979 43.7799 187.476 43.9048 186.955 43.9937C186.435 44.0825 185.851 44.127 185.203 44.127C184.26 44.127 183.46 43.9408 182.804 43.5684C182.152 43.1917 181.657 42.6479 181.319 41.937C180.98 41.2218 180.811 40.3607 180.811 39.3535C180.811 38.3844 180.999 37.5444 181.376 36.8335C181.752 36.1183 182.3 35.5661 183.02 35.1768C183.739 34.7832 184.611 34.5864 185.635 34.5864C186.139 34.5864 186.625 34.6372 187.095 34.7388C187.569 34.8361 188.003 34.9715 188.396 35.145L187.863 36.4019C187.55 36.2537 187.199 36.1289 186.809 36.0273C186.42 35.9258 186.016 35.875 185.597 35.875C184.933 35.875 184.359 36.0189 183.877 36.3066C183.399 36.5944 183.03 37.0007 182.772 37.5254C182.514 38.0459 182.385 38.6616 182.385 39.3726C182.385 40.0623 182.489 40.6675 182.696 41.188C182.903 41.7085 183.227 42.1147 183.667 42.4067C184.112 42.6945 184.685 42.8384 185.388 42.8384C185.739 42.8384 186.037 42.8193 186.283 42.7812C186.528 42.7432 186.754 42.7008 186.962 42.6543V40.2612H185V38.96Z" fill="#4079DA"/>
<g filter="url(#filter0_d_414_13074)">
<rect x="79" y="85" width="55" height="43.0723" rx="4" fill="white"/>
</g>
<rect x="79" y="68" width="104" height="6" rx="3" fill="#929292"/>
<rect x="84" y="93" width="46" height="3" fill="#D9D9D9"/>
<rect x="84" y="103" width="15" height="3" fill="#D9D9D9"/>
<g filter="url(#filter1_d_414_13074)">
<rect x="145" y="85" width="55" height="43.0723" rx="4" fill="white"/>
</g>
<rect x="150" y="93" width="46" height="3" fill="#D9D9D9"/>
<rect x="150" y="103" width="15" height="3" fill="#D9D9D9"/>
<g filter="url(#filter2_d_414_13074)">
<rect x="211" y="85" width="55" height="43.0723" rx="4" fill="white"/>
</g>
<rect x="216" y="93" width="46" height="3" fill="#D9D9D9"/>
<rect x="216" y="103" width="15" height="3" fill="#D9D9D9"/>
<g filter="url(#filter3_d_414_13074)">
<rect x="277" y="85" width="55" height="43.0723" rx="4" fill="white"/>
</g>
<rect x="282" y="93" width="46" height="3" fill="#D9D9D9"/>
<rect x="282" y="103" width="15" height="3" fill="#D9D9D9"/>
<g filter="url(#filter4_d_414_13074)">
<rect x="79" y="168" width="55" height="43.0723" rx="4" fill="white"/>
</g>
<rect x="79" y="152" width="104" height="6" rx="3" fill="#929292"/>
<rect x="84" y="176" width="46" height="3" fill="#D9D9D9"/>
<rect x="84" y="186" width="15" height="3" fill="#D9D9D9"/>
<g filter="url(#filter5_d_414_13074)">
<rect x="145" y="168" width="55" height="43.0723" rx="4" fill="white"/>
</g>
<rect x="150" y="176" width="46" height="3" fill="#D9D9D9"/>
<rect x="150" y="186" width="15" height="3" fill="#D9D9D9"/>
<g filter="url(#filter6_d_414_13074)">
<rect x="211" y="168" width="55" height="43.0723" rx="4" fill="white"/>
</g>
<rect x="216" y="176" width="46" height="3" fill="#D9D9D9"/>
<rect x="216" y="186" width="15" height="3" fill="#D9D9D9"/>
<path d="M393.426 217.143H327.053V225H393.426V217.143Z" fill="#5C5C5C"/>
<path d="M342.781 217.143H340.072V225H342.781V217.143Z" fill="#9ABFFF"/>
<path d="M385.616 217.143H379.133V225H385.616V217.143Z" fill="#9ABFFF"/>
<path d="M392.059 185H324.265V195.382H392.059V185Z" fill="#5C5C5C"/>
<path d="M380.065 188.37H363.782V192.018H380.065V188.37Z" fill="#9ABFFF"/>
<path d="M388.232 190.194C388.267 190.626 388.17 191.059 387.955 191.435C387.74 191.811 387.417 192.114 387.027 192.304C386.637 192.493 386.199 192.561 385.771 192.497C385.342 192.434 384.942 192.243 384.624 191.949C384.305 191.655 384.083 191.272 383.986 190.85C383.888 190.427 383.921 189.985 384.079 189.582C384.236 189.178 384.512 188.831 384.87 188.587C385.228 188.343 385.651 188.212 386.085 188.212C386.631 188.196 387.162 188.394 387.563 188.765C387.965 189.135 388.205 189.649 388.232 190.194V190.194Z" fill="#9ABFFF"/>
<path d="M355.535 195.382H321.285V204.547H355.535V195.382Z" fill="#747B87"/>
<path d="M387.195 195.382H355.535V204.547H387.195V195.382Z" fill="#747B87"/>
<path d="M355.535 196.334H321.285V203.596H355.535V196.334Z" fill="#F7F7F7"/>
<path d="M324.265 197.827C327.851 197.765 331.437 197.734 335.023 197.734L339.894 197.701L350.658 197.734C354.247 197.734 351.94 197.787 355.529 197.84C351.94 197.893 354.247 197.926 350.658 197.946L339.894 197.979L335.023 197.932C331.437 197.915 327.851 197.88 324.265 197.827Z" fill="#DBDBDB"/>
<path d="M324.265 199.247C327.851 199.203 331.439 199.168 335.03 199.141L339.9 199.108L350.665 199.141C354.253 199.141 351.947 199.201 355.535 199.247C351.947 199.3 354.253 199.34 350.665 199.353L339.9 199.386L335.023 199.353C331.437 199.34 327.851 199.304 324.265 199.247Z" fill="#DBDBDB"/>
<path d="M324.265 200.675C327.851 200.622 331.439 200.587 335.03 200.569L339.9 200.536L350.665 200.569C354.253 200.569 351.947 200.622 355.535 200.675C351.947 200.728 354.253 200.761 350.665 200.781L339.9 200.814L335.023 200.781C331.437 200.759 327.851 200.723 324.265 200.675Z" fill="#DBDBDB"/>
<path d="M324.265 202.103C327.851 202.05 331.439 202.012 335.03 201.99H339.9H350.665C354.253 201.99 351.947 202.05 355.535 202.103C351.947 202.149 354.253 202.188 350.665 202.208H339.9H335.03C331.439 202.191 327.851 202.155 324.265 202.103Z" fill="#DBDBDB"/>
<path d="M367 195.382H362.546V204.547H367V195.382Z" fill="#37517D"/>
<path d="M385.556 195.382H382.562V204.547H385.556V195.382Z" fill="#37517D"/>
<path d="M347.288 217.136H385.86V204.54H347.288V217.136Z" fill="#6291E0"/>
<path d="M318 217.136H347.288V204.54H318V217.136Z" fill="#6291E0"/>
<path d="M347.288 215.827H385.86V205.849H347.288V215.827Z" fill="#F7F7F7"/>
<path d="M383.362 213.779C380.353 213.828 377.347 213.863 374.342 213.885L365.322 213.918L356.301 213.885C353.293 213.885 350.286 213.85 347.281 213.779C350.29 213.727 353.297 213.691 356.301 213.674L365.322 213.641L374.342 213.674C377.351 213.687 380.358 213.722 383.362 213.779Z" fill="#DBDBDB"/>
<path d="M383.362 211.817C380.353 211.87 377.347 211.905 374.342 211.922H365.322H356.301C353.293 211.922 350.286 211.887 347.281 211.817C350.29 211.773 353.297 211.737 356.301 211.711H365.322H374.342C377.351 211.733 380.358 211.768 383.362 211.817Z" fill="#DBDBDB"/>
<path d="M383.362 209.859C380.353 209.912 377.347 209.948 374.342 209.965L365.322 209.998L356.301 209.965C353.293 209.965 350.286 209.93 347.281 209.859C350.29 209.807 353.297 209.771 356.301 209.754L365.322 209.721L374.342 209.754C377.351 209.776 380.358 209.811 383.362 209.859Z" fill="#DBDBDB"/>
<path d="M383.362 207.903C380.353 207.956 377.347 207.992 374.342 208.009L365.322 208.042L356.301 208.009C353.293 208.009 350.286 207.974 347.281 207.903C350.29 207.851 353.297 207.815 356.301 207.798L365.322 207.765L374.342 207.798C377.351 207.82 380.358 207.855 383.362 207.903Z" fill="#DBDBDB"/>
<path d="M328.144 204.541H322.659V217.136H328.144V204.541Z" fill="#37517D"/>
<defs>
<filter id="filter0_d_414_13074" x="75" y="81" width="63" height="51.0723" filterUnits="userSpaceOnUse" color-interpolation-filters="sRGB">
<feFlood flood-opacity="0" result="BackgroundImageFix"/>
<feColorMatrix in="SourceAlpha" type="matrix" values="0 0 0 0 0 0 0 0 0 0 0 0 0 0 0 0 0 0 127 0" result="hardAlpha"/>
<feOffset/>
<feGaussianBlur stdDeviation="2"/>
<feComposite in2="hardAlpha" operator="out"/>
<feColorMatrix type="matrix" values="0 0 0 0 0 0 0 0 0 0 0 0 0 0 0 0 0 0 0.2 0"/>
<feBlend mode="normal" in2="BackgroundImageFix" result="effect1_dropShadow_414_13074"/>
<feBlend mode="normal" in="SourceGraphic" in2="effect1_dropShadow_414_13074" result="shape"/>
</filter>
<filter id="filter1_d_414_13074" x="141" y="81" width="63" height="51.0723" filterUnits="userSpaceOnUse" color-interpolation-filters="sRGB">
<feFlood flood-opacity="0" result="BackgroundImageFix"/>
<feColorMatrix in="SourceAlpha" type="matrix" values="0 0 0 0 0 0 0 0 0 0 0 0 0 0 0 0 0 0 127 0" result="hardAlpha"/>
<feOffset/>
<feGaussianBlur stdDeviation="2"/>
<feComposite in2="hardAlpha" operator="out"/>
<feColorMatrix type="matrix" values="0 0 0 0 0 0 0 0 0 0 0 0 0 0 0 0 0 0 0.2 0"/>
<feBlend mode="normal" in2="BackgroundImageFix" result="effect1_dropShadow_414_13074"/>
<feBlend mode="normal" in="SourceGraphic" in2="effect1_dropShadow_414_13074" result="shape"/>
</filter>
<filter id="filter2_d_414_13074" x="207" y="81" width="63" height="51.0723" filterUnits="userSpaceOnUse" color-interpolation-filters="sRGB">
<feFlood flood-opacity="0" result="BackgroundImageFix"/>
<feColorMatrix in="SourceAlpha" type="matrix" values="0 0 0 0 0 0 0 0 0 0 0 0 0 0 0 0 0 0 127 0" result="hardAlpha"/>
<feOffset/>
<feGaussianBlur stdDeviation="2"/>
<feComposite in2="hardAlpha" operator="out"/>
<feColorMatrix type="matrix" values="0 0 0 0 0 0 0 0 0 0 0 0 0 0 0 0 0 0 0.2 0"/>
<feBlend mode="normal" in2="BackgroundImageFix" result="effect1_dropShadow_414_13074"/>
<feBlend mode="normal" in="SourceGraphic" in2="effect1_dropShadow_414_13074" result="shape"/>
</filter>
<filter id="filter3_d_414_13074" x="273" y="81" width="63" height="51.0723" filterUnits="userSpaceOnUse" color-interpolation-filters="sRGB">
<feFlood flood-opacity="0" result="BackgroundImageFix"/>
<feColorMatrix in="SourceAlpha" type="matrix" values="0 0 0 0 0 0 0 0 0 0 0 0 0 0 0 0 0 0 127 0" result="hardAlpha"/>
<feOffset/>
<feGaussianBlur stdDeviation="2"/>
<feComposite in2="hardAlpha" operator="out"/>
<feColorMatrix type="matrix" values="0 0 0 0 0 0 0 0 0 0 0 0 0 0 0 0 0 0 0.2 0"/>
<feBlend mode="normal" in2="BackgroundImageFix" result="effect1_dropShadow_414_13074"/>
<feBlend mode="normal" in="SourceGraphic" in2="effect1_dropShadow_414_13074" result="shape"/>
</filter>
<filter id="filter4_d_414_13074" x="75" y="164" width="63" height="51.0723" filterUnits="userSpaceOnUse" color-interpolation-filters="sRGB">
<feFlood flood-opacity="0" result="BackgroundImageFix"/>
<feColorMatrix in="SourceAlpha" type="matrix" values="0 0 0 0 0 0 0 0 0 0 0 0 0 0 0 0 0 0 127 0" result="hardAlpha"/>
<feOffset/>
<feGaussianBlur stdDeviation="2"/>
<feComposite in2="hardAlpha" operator="out"/>
<feColorMatrix type="matrix" values="0 0 0 0 0 0 0 0 0 0 0 0 0 0 0 0 0 0 0.2 0"/>
<feBlend mode="normal" in2="BackgroundImageFix" result="effect1_dropShadow_414_13074"/>
<feBlend mode="normal" in="SourceGraphic" in2="effect1_dropShadow_414_13074" result="shape"/>
</filter>
<filter id="filter5_d_414_13074" x="141" y="164" width="63" height="51.0723" filterUnits="userSpaceOnUse" color-interpolation-filters="sRGB">
<feFlood flood-opacity="0" result="BackgroundImageFix"/>
<feColorMatrix in="SourceAlpha" type="matrix" values="0 0 0 0 0 0 0 0 0 0 0 0 0 0 0 0 0 0 127 0" result="hardAlpha"/>
<feOffset/>
<feGaussianBlur stdDeviation="2"/>
<feComposite in2="hardAlpha" operator="out"/>
<feColorMatrix type="matrix" values="0 0 0 0 0 0 0 0 0 0 0 0 0 0 0 0 0 0 0.2 0"/>
<feBlend mode="normal" in2="BackgroundImageFix" result="effect1_dropShadow_414_13074"/>
<feBlend mode="normal" in="SourceGraphic" in2="effect1_dropShadow_414_13074" result="shape"/>
</filter>
<filter id="filter6_d_414_13074" x="207" y="164" width="63" height="51.0723" filterUnits="userSpaceOnUse" color-interpolation-filters="sRGB">
<feFlood flood-opacity="0" result="BackgroundImageFix"/>
<feColorMatrix in="SourceAlpha" type="matrix" values="0 0 0 0 0 0 0 0 0 0 0 0 0 0 0 0 0 0 127 0" result="hardAlpha"/>
<feOffset/>
<feGaussianBlur stdDeviation="2"/>
<feComposite in2="hardAlpha" operator="out"/>
<feColorMatrix type="matrix" values="0 0 0 0 0 0 0 0 0 0 0 0 0 0 0 0 0 0 0.2 0"/>
<feBlend mode="normal" in2="BackgroundImageFix" result="effect1_dropShadow_414_13074"/>
<feBlend mode="normal" in="SourceGraphic" in2="effect1_dropShadow_414_13074" result="shape"/>
</filter>
</defs>
</svg>
